<mxfile host="app.diagrams.net" agent="Mozilla/5.0 (Macintosh; Intel Mac OS X 10_15_7) AppleWebKit/605.1.15 (KHTML, like Gecko) Version/18.3 Safari/605.1.15" version="26.1.1">
  <diagram name="第 1 页" id="t8iZb5gvuTAnhieczAWc">
    <mxGraphModel dx="1845" dy="535" grid="1" gridSize="10" guides="1" tooltips="1" connect="1" arrows="1" fold="1" page="1" pageScale="1" pageWidth="827" pageHeight="1169" math="0" shadow="0">
      <root>
        <mxCell id="0" />
        <mxCell id="1" parent="0" />
        <mxCell id="Q1QxfBmRX5UMwd9JbW06-8" value="用户" style="shape=umlActor;verticalLabelPosition=bottom;verticalAlign=top;html=1;outlineConnect=0;" vertex="1" parent="1">
          <mxGeometry x="-20" y="290" width="30" height="60" as="geometry" />
        </mxCell>
        <mxCell id="Q1QxfBmRX5UMwd9JbW06-9" value="注册" style="ellipse;whiteSpace=wrap;html=1;" vertex="1" parent="1">
          <mxGeometry x="190" y="100" width="100" height="50" as="geometry" />
        </mxCell>
        <mxCell id="Q1QxfBmRX5UMwd9JbW06-10" value="登录" style="ellipse;whiteSpace=wrap;html=1;" vertex="1" parent="1">
          <mxGeometry x="190" y="180" width="100" height="50" as="geometry" />
        </mxCell>
        <mxCell id="Q1QxfBmRX5UMwd9JbW06-11" value="搜索内容" style="ellipse;whiteSpace=wrap;html=1;" vertex="1" parent="1">
          <mxGeometry x="190" y="260" width="100" height="50" as="geometry" />
        </mxCell>
        <mxCell id="Q1QxfBmRX5UMwd9JbW06-12" value="查看内容详情" style="ellipse;whiteSpace=wrap;html=1;" vertex="1" parent="1">
          <mxGeometry x="190" y="340" width="100" height="50" as="geometry" />
        </mxCell>
        <mxCell id="Q1QxfBmRX5UMwd9JbW06-13" value="更改个人信息" style="ellipse;whiteSpace=wrap;html=1;" vertex="1" parent="1">
          <mxGeometry x="190" y="420" width="100" height="50" as="geometry" />
        </mxCell>
        <mxCell id="Q1QxfBmRX5UMwd9JbW06-14" value="发表评论" style="ellipse;whiteSpace=wrap;html=1;" vertex="1" parent="1">
          <mxGeometry x="190" y="500" width="100" height="50" as="geometry" />
        </mxCell>
        <mxCell id="Q1QxfBmRX5UMwd9JbW06-20" value="" style="endArrow=open;endSize=12;dashed=1;html=1;rounded=0;exitX=1;exitY=0.5;exitDx=0;exitDy=0;entryX=0;entryY=0.5;entryDx=0;entryDy=0;" edge="1" parent="1" source="Q1QxfBmRX5UMwd9JbW06-13" target="Q1QxfBmRX5UMwd9JbW06-30">
          <mxGeometry width="160" relative="1" as="geometry">
            <mxPoint x="520" y="230" as="sourcePoint" />
            <mxPoint x="680" y="230" as="targetPoint" />
          </mxGeometry>
        </mxCell>
        <mxCell id="Q1QxfBmRX5UMwd9JbW06-22" value="&amp;lt;&amp;lt;inlude&amp;gt;&amp;gt;" style="edgeLabel;html=1;align=center;verticalAlign=middle;resizable=0;points=[];" vertex="1" connectable="0" parent="Q1QxfBmRX5UMwd9JbW06-20">
          <mxGeometry x="-0.075" relative="1" as="geometry">
            <mxPoint as="offset" />
          </mxGeometry>
        </mxCell>
        <mxCell id="Q1QxfBmRX5UMwd9JbW06-23" value="" style="endArrow=classic;html=1;rounded=0;entryX=0;entryY=0.5;entryDx=0;entryDy=0;" edge="1" parent="1" source="Q1QxfBmRX5UMwd9JbW06-8" target="Q1QxfBmRX5UMwd9JbW06-9">
          <mxGeometry width="50" height="50" relative="1" as="geometry">
            <mxPoint x="390" y="410" as="sourcePoint" />
            <mxPoint x="224" y="149" as="targetPoint" />
          </mxGeometry>
        </mxCell>
        <mxCell id="Q1QxfBmRX5UMwd9JbW06-24" value="" style="endArrow=classic;html=1;rounded=0;entryX=0;entryY=0.5;entryDx=0;entryDy=0;" edge="1" parent="1" source="Q1QxfBmRX5UMwd9JbW06-8" target="Q1QxfBmRX5UMwd9JbW06-10">
          <mxGeometry width="50" height="50" relative="1" as="geometry">
            <mxPoint x="390" y="410" as="sourcePoint" />
            <mxPoint x="440" y="360" as="targetPoint" />
          </mxGeometry>
        </mxCell>
        <mxCell id="Q1QxfBmRX5UMwd9JbW06-25" value="" style="endArrow=classic;html=1;rounded=0;entryX=0;entryY=0.5;entryDx=0;entryDy=0;" edge="1" parent="1" source="Q1QxfBmRX5UMwd9JbW06-8" target="Q1QxfBmRX5UMwd9JbW06-11">
          <mxGeometry width="50" height="50" relative="1" as="geometry">
            <mxPoint x="390" y="410" as="sourcePoint" />
            <mxPoint x="440" y="360" as="targetPoint" />
          </mxGeometry>
        </mxCell>
        <mxCell id="Q1QxfBmRX5UMwd9JbW06-26" value="" style="endArrow=classic;html=1;rounded=0;entryX=0;entryY=0.5;entryDx=0;entryDy=0;" edge="1" parent="1" source="Q1QxfBmRX5UMwd9JbW06-8" target="Q1QxfBmRX5UMwd9JbW06-12">
          <mxGeometry width="50" height="50" relative="1" as="geometry">
            <mxPoint x="390" y="410" as="sourcePoint" />
            <mxPoint x="440" y="360" as="targetPoint" />
          </mxGeometry>
        </mxCell>
        <mxCell id="Q1QxfBmRX5UMwd9JbW06-27" value="" style="endArrow=classic;html=1;rounded=0;entryX=0;entryY=0.5;entryDx=0;entryDy=0;" edge="1" parent="1" source="Q1QxfBmRX5UMwd9JbW06-8" target="Q1QxfBmRX5UMwd9JbW06-13">
          <mxGeometry width="50" height="50" relative="1" as="geometry">
            <mxPoint x="390" y="410" as="sourcePoint" />
            <mxPoint x="440" y="360" as="targetPoint" />
          </mxGeometry>
        </mxCell>
        <mxCell id="Q1QxfBmRX5UMwd9JbW06-28" value="" style="endArrow=classic;html=1;rounded=0;entryX=0;entryY=0.5;entryDx=0;entryDy=0;" edge="1" parent="1" source="Q1QxfBmRX5UMwd9JbW06-8" target="Q1QxfBmRX5UMwd9JbW06-14">
          <mxGeometry width="50" height="50" relative="1" as="geometry">
            <mxPoint x="390" y="410" as="sourcePoint" />
            <mxPoint x="440" y="360" as="targetPoint" />
          </mxGeometry>
        </mxCell>
        <mxCell id="Q1QxfBmRX5UMwd9JbW06-29" value="更改头像" style="ellipse;whiteSpace=wrap;html=1;" vertex="1" parent="1">
          <mxGeometry x="460" y="420" width="100" height="50" as="geometry" />
        </mxCell>
        <mxCell id="Q1QxfBmRX5UMwd9JbW06-30" value="更改用户名" style="ellipse;whiteSpace=wrap;html=1;" vertex="1" parent="1">
          <mxGeometry x="460" y="340" width="100" height="50" as="geometry" />
        </mxCell>
        <mxCell id="Q1QxfBmRX5UMwd9JbW06-31" value="更改密码" style="ellipse;whiteSpace=wrap;html=1;" vertex="1" parent="1">
          <mxGeometry x="460" y="500" width="100" height="50" as="geometry" />
        </mxCell>
        <mxCell id="Q1QxfBmRX5UMwd9JbW06-32" value="" style="endArrow=open;endSize=12;dashed=1;html=1;rounded=0;exitX=1;exitY=0.5;exitDx=0;exitDy=0;entryX=0;entryY=0.5;entryDx=0;entryDy=0;" edge="1" parent="1" source="Q1QxfBmRX5UMwd9JbW06-13" target="Q1QxfBmRX5UMwd9JbW06-29">
          <mxGeometry width="160" relative="1" as="geometry">
            <mxPoint x="290" y="500" as="sourcePoint" />
            <mxPoint x="460" y="420" as="targetPoint" />
          </mxGeometry>
        </mxCell>
        <mxCell id="Q1QxfBmRX5UMwd9JbW06-33" value="&amp;lt;&amp;lt;inlude&amp;gt;&amp;gt;" style="edgeLabel;html=1;align=center;verticalAlign=middle;resizable=0;points=[];" vertex="1" connectable="0" parent="Q1QxfBmRX5UMwd9JbW06-32">
          <mxGeometry x="-0.075" relative="1" as="geometry">
            <mxPoint as="offset" />
          </mxGeometry>
        </mxCell>
        <mxCell id="Q1QxfBmRX5UMwd9JbW06-34" value="" style="endArrow=open;endSize=12;dashed=1;html=1;rounded=0;exitX=1;exitY=0.5;exitDx=0;exitDy=0;entryX=0;entryY=0.5;entryDx=0;entryDy=0;" edge="1" parent="1" source="Q1QxfBmRX5UMwd9JbW06-13" target="Q1QxfBmRX5UMwd9JbW06-31">
          <mxGeometry width="160" relative="1" as="geometry">
            <mxPoint x="310" y="465" as="sourcePoint" />
            <mxPoint x="480" y="385" as="targetPoint" />
          </mxGeometry>
        </mxCell>
        <mxCell id="Q1QxfBmRX5UMwd9JbW06-35" value="&amp;lt;&amp;lt;inlude&amp;gt;&amp;gt;" style="edgeLabel;html=1;align=center;verticalAlign=middle;resizable=0;points=[];" vertex="1" connectable="0" parent="Q1QxfBmRX5UMwd9JbW06-34">
          <mxGeometry x="-0.075" relative="1" as="geometry">
            <mxPoint as="offset" />
          </mxGeometry>
        </mxCell>
        <mxCell id="Q1QxfBmRX5UMwd9JbW06-36" value="搜索关键词" style="ellipse;whiteSpace=wrap;html=1;" vertex="1" parent="1">
          <mxGeometry x="460" y="100" width="100" height="50" as="geometry" />
        </mxCell>
        <mxCell id="Q1QxfBmRX5UMwd9JbW06-37" value="内容标签" style="ellipse;whiteSpace=wrap;html=1;" vertex="1" parent="1">
          <mxGeometry x="460" y="180" width="100" height="50" as="geometry" />
        </mxCell>
        <mxCell id="Q1QxfBmRX5UMwd9JbW06-38" value="个性化推荐" style="ellipse;whiteSpace=wrap;html=1;" vertex="1" parent="1">
          <mxGeometry x="460" y="260" width="100" height="50" as="geometry" />
        </mxCell>
        <mxCell id="Q1QxfBmRX5UMwd9JbW06-39" value="" style="endArrow=open;endSize=12;dashed=1;html=1;rounded=0;exitX=1;exitY=0.5;exitDx=0;exitDy=0;entryX=0;entryY=0.5;entryDx=0;entryDy=0;" edge="1" parent="1" source="Q1QxfBmRX5UMwd9JbW06-11" target="Q1QxfBmRX5UMwd9JbW06-38">
          <mxGeometry width="160" relative="1" as="geometry">
            <mxPoint x="300" y="455" as="sourcePoint" />
            <mxPoint x="470" y="375" as="targetPoint" />
          </mxGeometry>
        </mxCell>
        <mxCell id="Q1QxfBmRX5UMwd9JbW06-40" value="&amp;lt;&amp;lt;inlude&amp;gt;&amp;gt;" style="edgeLabel;html=1;align=center;verticalAlign=middle;resizable=0;points=[];" vertex="1" connectable="0" parent="Q1QxfBmRX5UMwd9JbW06-39">
          <mxGeometry x="-0.075" relative="1" as="geometry">
            <mxPoint as="offset" />
          </mxGeometry>
        </mxCell>
        <mxCell id="Q1QxfBmRX5UMwd9JbW06-41" value="" style="endArrow=open;endSize=12;dashed=1;html=1;rounded=0;exitX=1;exitY=0.5;exitDx=0;exitDy=0;entryX=0;entryY=0.5;entryDx=0;entryDy=0;" edge="1" parent="1" source="Q1QxfBmRX5UMwd9JbW06-11" target="Q1QxfBmRX5UMwd9JbW06-37">
          <mxGeometry width="160" relative="1" as="geometry">
            <mxPoint x="310" y="465" as="sourcePoint" />
            <mxPoint x="480" y="385" as="targetPoint" />
          </mxGeometry>
        </mxCell>
        <mxCell id="Q1QxfBmRX5UMwd9JbW06-42" value="&amp;lt;&amp;lt;inlude&amp;gt;&amp;gt;" style="edgeLabel;html=1;align=center;verticalAlign=middle;resizable=0;points=[];" vertex="1" connectable="0" parent="Q1QxfBmRX5UMwd9JbW06-41">
          <mxGeometry x="-0.075" relative="1" as="geometry">
            <mxPoint as="offset" />
          </mxGeometry>
        </mxCell>
        <mxCell id="Q1QxfBmRX5UMwd9JbW06-43" value="" style="endArrow=open;endSize=12;dashed=1;html=1;rounded=0;exitX=1;exitY=0.5;exitDx=0;exitDy=0;entryX=0;entryY=0.5;entryDx=0;entryDy=0;" edge="1" parent="1" source="Q1QxfBmRX5UMwd9JbW06-11" target="Q1QxfBmRX5UMwd9JbW06-36">
          <mxGeometry width="160" relative="1" as="geometry">
            <mxPoint x="320" y="475" as="sourcePoint" />
            <mxPoint x="490" y="395" as="targetPoint" />
          </mxGeometry>
        </mxCell>
        <mxCell id="Q1QxfBmRX5UMwd9JbW06-44" value="&amp;lt;&amp;lt;inlude&amp;gt;&amp;gt;" style="edgeLabel;html=1;align=center;verticalAlign=middle;resizable=0;points=[];" vertex="1" connectable="0" parent="Q1QxfBmRX5UMwd9JbW06-43">
          <mxGeometry x="-0.075" relative="1" as="geometry">
            <mxPoint as="offset" />
          </mxGeometry>
        </mxCell>
      </root>
    </mxGraphModel>
  </diagram>
</mxfile>
